<?xml version="1.0" encoding="UTF-8"?><svg id="Layer_1" xmlns="http://www.w3.org/2000/svg" viewBox="0 0 2815.02 1953.78"><path d="M1025.63,1072.78c112.33,362.05,629.93,365.49,750.52,8.27l237.75,221.09,259.31-450.97-298.86-546.22c-50.55-265.85,278.1-411.88,446.41-202.22,101.51,210.78,268.43,420.58,366.86,628.71,82.21,173.84-39.05,289.39-119.89,430.79-120.81,211.33-247.77,469.8-381.76,667.5-98.75,145.7-256.66,156.84-395.88,58.21l-490.95-484.22-501.91,500.74c-137.04,90.77-277.43,51.55-366.84-78.95C346.3,1556.84,210.44,1226.84,24.4,955.86c-60.15-138.03,2.38-205,63.57-313.78C155.06,522.82,369.02,108.5,457.92,45.35c205.07-145.65,477.12,86.59,367.41,313.26l-281.71,491.16,257.24,441.6,224.76-218.6Z"/><path d="M1355.45,656.82c444.36-57.08,457.94,631.23,15.57,593.38-347.44-29.73-352.63-550.09-15.57-593.38Z"/></svg>